<svg id="Calque_1" data-name="Calque 1" xmlns="http://www.w3.org/2000/svg" viewBox="0 0 1000 1000"><defs><style>.cls-1{fill:#3c3c3b;}.cls-2{fill:#fcc74c;}</style></defs><path class="cls-1" d="M217.94,682.07l6.53-9.13c2.44,2.29,10.27,9.63,24.8,9.63,13.37,0,22.17-8.82,22.17-18.44,0-13.21-12.39-18.76-24.95-25-13.22-6.53-25.3-13.55-25.3-30.83,0-17.78,15-27.73,31.67-27.73,16.14,0,24.95,5.87,28.54,8.64l-6.2,9.46a35.71,35.71,0,0,0-22.51-7.5c-10.77,0-18.92,6.53-18.92,16.48,0,10.76,8.8,15.82,19.57,20.88,14.35,6.85,31,14.19,31,35.4,0,17.12-14.51,29.2-35.56,29.2-16.64,0-26.92-7.35-30.83-11.1"/><polygon class="cls-1" points="338.98 582.57 394.78 582.57 394.78 593.33 351.7 593.33 351.7 628.24 389.56 628.24 389.56 639.01 351.7 639.01 351.7 680.44 395.92 680.44 395.92 691.21 338.98 691.21 338.98 582.57"/><path class="cls-1" d="M439.47,582.57h13.71l27.9,74.87c3.25,8.65,5.38,15.67,6.52,19.1h.32c1.14-3.6,3.27-10.45,6.38-19.1l27.23-74.87H534.1L493.63,691.21H481.24Z"/><polygon class="cls-1" points="583.85 582.57 639.64 582.57 639.64 593.33 596.57 593.33 596.57 628.24 634.42 628.24 634.42 639.01 596.57 639.01 596.57 680.45 640.79 680.45 640.79 691.21 583.85 691.21 583.85 582.57"/><path class="cls-1" d="M696.74,582.57H709.3l51.22,73.56c5.06,7.35,8.17,12.73,10.12,16H771c-.15-2.12-.65-6.69-.65-14.69V582.57h11.75V691.21H770.31l-53.67-77.49c-3.26-4.57-6.53-10.61-8.48-14h-.33c.16,2.11.65,6.69.65,11.9v79.61H696.74Z"/><path class="cls-1" d="M471.69,341.3a34.48,34.48,0,1,0,34.48-34.47,34.47,34.47,0,0,0-34.48,34.47"/><path class="cls-1" d="M402,414.12a34.48,34.48,0,1,0,34.49-34.5A34.46,34.46,0,0,0,402,414.12"/><path class="cls-1" d="M334.42,487.21a34.48,34.48,0,1,0,34.49-34.47,34.49,34.49,0,0,0-34.49,34.47"/><path class="cls-1" d="M609,341.3a34.48,34.48,0,1,0,34.46-34.47A34.46,34.46,0,0,0,609,341.3"/><path class="cls-1" d="M540.12,414.12a34.48,34.48,0,1,0,34.5-34.5,34.48,34.48,0,0,0-34.5,34.5"/><path class="cls-1" d="M471.73,487.21a34.48,34.48,0,1,0,34.48-34.47,34.49,34.49,0,0,0-34.48,34.47"/><path class="cls-2" d="M609,487.21a34.5,34.5,0,1,0,34.48-34.47A34.48,34.48,0,0,0,609,487.21"/></svg>