<svg width="556" height="381" viewBox="0 0 556 381" fill="none" xmlns="http://www.w3.org/2000/svg">
<path d="M0.0299988 369.26L6.45 360.26C8.85 362.51 16.56 369.74 30.85 369.74C44.02 369.74 52.68 361.06 52.68 351.58C52.68 338.58 40.48 333.13 28.12 327.03C15.12 320.61 3.23 313.7 3.23 296.69C3.23 279.19 18 269.4 34.38 269.4C50.27 269.4 58.94 275.18 62.47 277.91L56.37 287.21C50.0439 282.297 42.2288 279.693 34.22 279.83C23.58 279.84 15.58 286.27 15.58 296.09C15.58 306.68 24.24 311.66 34.84 316.64C48.96 323.38 65.33 330.64 65.33 351.47C65.33 368.32 51.05 380.21 30.33 380.21C13.96 380.21 3.84 372.97 0 369.29" fill="white"/>
<path d="M119.13 271.34H174.04V281.93H131.65V316.28H168.9V326.88H131.65V367.65H175.16V378.25H119.13V271.34Z" fill="white"/>
<path d="M218.021 271.34H231.51L258.961 345.02C262.161 353.53 264.26 360.43 265.38 363.81H265.69C266.82 360.27 268.911 353.53 271.971 345.02L298.771 271.34H311.141L271.32 378.25H259.121L218.021 271.34Z" fill="white"/>
<path d="M360.09 271.34H414.99V281.93H372.6V316.28H409.86V326.88H372.6V367.66H416.12V378.25H360.09V271.34Z" fill="white"/>
<path d="M471.17 271.34H483.58L533.98 343.73C538.98 350.96 541.98 356.25 543.98 359.47H544.3C544.14 357.38 543.65 352.88 543.65 345.02V271.34H555.21V378.25H543.58L490.76 301.99C487.55 297.5 484.34 291.56 482.42 288.19H482.09C482.25 290.28 482.73 294.78 482.73 299.91V378.25H471.17V271.34Z" fill="white"/>
<path d="M249.73 33.92C249.728 40.6316 251.717 47.193 255.445 52.7743C259.172 58.3556 264.471 62.706 270.671 65.2753C276.872 67.8446 283.695 68.5174 290.277 67.2085C296.86 65.8996 302.907 62.6679 307.653 57.9221C312.398 53.1763 315.63 47.1297 316.939 40.547C318.248 33.9643 317.575 27.1412 315.006 20.9409C312.436 14.7406 308.086 9.44157 302.505 5.71405C296.923 1.98654 290.362 -0.0019763 283.65 1.47509e-06C279.196 -0.00131243 274.784 0.875142 270.668 2.57932C266.552 4.28349 262.813 6.78198 259.662 9.93201C256.512 13.082 254.014 16.8218 252.31 20.9378C250.606 25.0538 249.729 29.4652 249.73 33.92" fill="white"/>
<path d="M181.12 105.58C181.122 112.29 183.113 118.848 186.843 124.426C190.572 130.005 195.871 134.352 202.07 136.919C208.27 139.486 215.091 140.157 221.672 138.847C228.253 137.538 234.298 134.306 239.042 129.562C243.787 124.817 247.018 118.772 248.328 112.192C249.637 105.611 248.966 98.7893 246.399 92.5899C243.832 86.3904 239.485 81.0911 233.907 77.3621C228.329 73.633 221.77 71.6416 215.06 71.6397C210.602 71.6357 206.187 72.5109 202.067 74.2152C197.948 75.9194 194.205 78.4193 191.052 81.5717C187.9 84.7241 185.4 88.4672 183.696 92.5867C181.991 96.7063 181.116 101.121 181.12 105.58Z" fill="white"/>
<path d="M114.65 177.51C114.648 184.221 116.637 190.782 120.364 196.363C124.091 201.944 129.389 206.295 135.589 208.864C141.789 211.434 148.611 212.107 155.194 210.799C161.776 209.491 167.823 206.26 172.569 201.516C177.315 196.771 180.548 190.725 181.858 184.143C183.168 177.561 182.496 170.738 179.929 164.538C177.361 158.337 173.012 153.037 167.432 149.309C161.852 145.58 155.292 143.59 148.58 143.59C139.583 143.59 130.955 147.163 124.592 153.524C118.229 159.885 114.653 168.513 114.65 177.51" fill="white"/>
<path d="M384.85 33.92C384.846 40.6344 386.833 47.1991 390.561 52.7836C394.289 58.368 399.59 62.7213 405.792 65.2926C411.995 67.864 418.82 68.5378 425.406 67.2288C431.992 65.9199 438.041 62.687 442.789 57.9392C447.537 53.1914 450.769 47.142 452.078 40.5565C453.387 33.9709 452.714 27.145 450.142 20.9425C447.571 14.7399 443.218 9.43944 437.633 5.71158C432.049 1.98373 425.484 -0.00394957 418.77 5.89203e-06C414.315 -0.00130802 409.903 0.875147 405.787 2.57932C401.671 4.2835 397.932 6.78199 394.782 9.93201C391.632 13.082 389.133 16.8219 387.429 20.9378C385.725 25.0538 384.848 29.4652 384.85 33.92Z" fill="white"/>
<path d="M317.061 105.58C317.063 112.289 319.054 118.847 322.782 124.425C326.511 130.003 331.81 134.351 338.008 136.918C344.207 139.485 351.028 140.157 357.609 138.848C364.189 137.539 370.234 134.309 374.979 129.565C379.724 124.822 382.956 118.778 384.267 112.198C385.578 105.617 384.908 98.7964 382.343 92.5968C379.777 86.3971 375.431 81.0972 369.855 77.3669C364.278 73.6367 357.72 71.6436 351.011 71.6397C346.552 71.6357 342.136 72.5109 338.016 74.215C333.896 75.9191 330.152 78.4188 326.999 81.5711C323.846 84.7233 321.345 88.4664 319.64 92.586C317.934 96.7056 317.058 101.121 317.061 105.58" fill="white"/>
<path d="M249.771 177.51C249.769 184.221 251.757 190.783 255.485 196.364C259.212 201.945 264.511 206.296 270.711 208.865C276.912 211.434 283.735 212.107 290.317 210.798C296.9 209.49 302.947 206.258 307.693 201.512C312.438 196.766 315.67 190.72 316.979 184.137C318.288 177.554 317.615 170.731 315.046 164.531C312.477 158.33 308.126 153.031 302.545 149.304C296.963 145.576 290.402 143.588 283.69 143.59C274.695 143.592 266.069 147.167 259.708 153.528C253.348 159.888 249.773 168.515 249.771 177.51" fill="white"/>
<path d="M384.85 177.51C384.844 184.227 386.83 190.794 390.558 196.382C394.286 201.969 399.587 206.325 405.791 208.899C411.996 211.472 418.824 212.148 425.412 210.84C432 209.532 438.052 206.298 442.802 201.55C447.553 196.801 450.787 190.75 452.097 184.162C453.408 177.574 452.734 170.746 450.162 164.541C447.591 158.336 443.236 153.033 437.65 149.304C432.063 145.574 425.496 143.586 418.78 143.59C409.783 143.59 401.154 147.163 394.791 153.524C388.428 159.885 384.852 168.513 384.85 177.51" fill="#FCC74C"/>
</svg>
